<svg width="24" height="24" viewBox="0 0 24 24" fill="none" xmlns="http://www.w3.org/2000/svg">
<g clip-path="url(#clip0_120_2610)">
<path fill-rule="evenodd" clip-rule="evenodd" d="M7.45113 12.0004C7.45113 12.4572 7.82143 12.8275 8.27819 12.8275L20.3781 12.8275L18.216 14.6807C17.8692 14.978 17.829 15.5001 18.1263 15.8469C18.4236 16.1937 18.9457 16.2339 19.2925 15.9366L23.1521 12.6283C23.3354 12.4713 23.4409 12.2418 23.4409 12.0004C23.4409 11.759 23.3354 11.5296 23.1521 11.3725L19.2925 8.0643C18.9457 7.767 18.4236 7.80714 18.1263 8.15395C17.829 8.50077 17.8692 9.02292 18.216 9.32011L20.3781 11.1734L8.27819 11.1734C7.82143 11.1734 7.45113 11.5437 7.45113 12.0004Z" fill="#2E7D32"/>
<path d="M14.8945 16.4109C14.8945 15.6365 14.8945 15.2494 14.7087 14.9712C14.6282 14.8508 14.5248 14.7474 14.4044 14.6669C14.1263 14.4811 13.7391 14.4811 12.9647 14.4811L8.27807 14.4811C6.9078 14.4811 5.79689 13.3703 5.79689 11.9999C5.79689 10.6296 6.9078 9.51873 8.27807 9.51873L12.9647 9.51873C13.7391 9.51873 14.1264 9.51873 14.4045 9.33292C14.5249 9.25242 14.6282 9.14909 14.7087 9.02867C14.8945 8.75056 14.8945 8.36338 14.8945 7.58893C14.8945 4.46992 14.8945 2.91043 13.9256 1.94144C12.9566 0.972462 11.3973 0.972461 8.27829 0.972461L7.17555 0.972461C4.05654 0.972461 2.49704 0.972461 1.52806 1.94144C0.559081 2.91042 0.559081 4.46992 0.559081 7.58893L0.55908 16.4109C0.559079 19.5299 0.559079 21.0894 1.52806 22.0584C2.49704 23.0273 4.05654 23.0273 7.17554 23.0273L8.27829 23.0273C11.3973 23.0273 12.9566 23.0273 13.9255 22.0584C14.8945 21.0894 14.8945 19.5299 14.8945 16.4109Z" fill="#2E7D32"/>
</g>
<defs>
<clipPath id="clip0_120_2610">
<rect width="24" height="24" fill="white"/>
</clipPath>
</defs>
</svg>
