<svg width="24" height="24" viewBox="0 0 24 24" fill="none" xmlns="http://www.w3.org/2000/svg">
<path d="M11.5245 1.98892C11.6741 1.52826 12.3259 1.52826 12.4755 1.98892L14.464 8.10866C14.5309 8.31467 14.7229 8.45415 14.9395 8.45415H21.3742C21.8585 8.45415 22.0599 9.07396 21.6681 9.35866L16.4623 13.1409C16.287 13.2682 16.2137 13.4939 16.2807 13.6999L18.2691 19.8196C18.4188 20.2803 17.8915 20.6633 17.4997 20.3786L12.2939 16.5964C12.1186 16.4691 11.8814 16.4691 11.7061 16.5964L6.50034 20.3786C6.10849 20.6633 5.58125 20.2803 5.73092 19.8196L7.71935 13.6999C7.78628 13.4939 7.71295 13.2682 7.53771 13.1409L2.33195 9.35866C1.94009 9.07396 2.14148 8.45415 2.62584 8.45415H9.06052C9.27713 8.45415 9.46911 8.31467 9.53605 8.10866L11.5245 1.98892Z" fill="#2E7D32"/>
</svg>
