<svg width="24" height="24" viewBox="0 0 24 24" fill="none" xmlns="http://www.w3.org/2000/svg">
<g clip-path="url(#clip0_120_2607)">
<path fill-rule="evenodd" clip-rule="evenodd" d="M14.1077 4.20688C14.1077 2.05499 15.8601 0.310547 18.0217 0.310547C20.1834 0.310547 21.9358 2.05499 21.9358 4.20688C21.9358 6.35877 20.1834 8.10323 18.0217 8.10323C16.9302 8.10323 15.9438 7.65822 15.2346 6.94228L9.81626 10.6314C9.86629 10.8803 9.89259 11.1375 9.89259 11.4002C9.89259 11.9203 9.78973 12.4176 9.60339 12.872L15.5446 16.7755C16.2189 16.2264 17.0817 15.8959 18.0217 15.8959C20.1834 15.8959 21.9358 17.6403 21.9358 19.7923C21.9358 21.9441 20.1834 23.6886 18.0217 23.6886C15.8601 23.6886 14.1077 21.9441 14.1077 19.7923C14.1077 19.2286 14.2283 18.6921 14.4451 18.2077L8.55194 14.3359C7.8645 14.9333 6.96402 15.2965 5.9785 15.2965C3.81684 15.2965 2.06445 13.552 2.06445 11.4002C2.06445 9.24824 3.81684 7.5038 5.9785 7.5038C7.22153 7.5038 8.32805 8.08053 9.04449 8.97817L14.2957 5.40278C14.1736 5.02542 14.1077 4.62333 14.1077 4.20688Z" fill="#2E7D32"/>
</g>
<defs>
<clipPath id="clip0_120_2607">
<rect width="24" height="24" fill="white"/>
</clipPath>
</defs>
</svg>
