<svg width="24" height="24" viewBox="0 0 24 24" fill="none" xmlns="http://www.w3.org/2000/svg">
<g clip-path="url(#clip0_120_2593)">
<circle cx="12" cy="12.1592" r="10.5908" fill="#2E7D32" stroke="#2E7D32" stroke-width="1.5"/>
<path d="M11.4526 14.3067C11.4526 13.7667 11.5876 13.2692 11.8576 12.8142C12.1326 12.3592 12.5076 12.0017 12.9826 11.7417C13.2526 11.6017 13.4626 11.3967 13.6126 11.1267C13.7626 10.8517 13.8376 10.5492 13.8376 10.2192C13.8376 9.90418 13.7601 9.61918 13.6051 9.36418C13.4551 9.10418 13.2501 8.89918 12.9901 8.74918C12.7301 8.59418 12.4426 8.51668 12.1276 8.51668C11.8176 8.51668 11.5326 8.59418 11.2726 8.74918C11.0126 8.89918 10.8051 9.10418 10.6501 9.36418C10.5001 9.61918 10.4251 9.90418 10.4251 10.2192H8.86514C8.86514 9.61918 9.01014 9.07418 9.30014 8.58418C9.59514 8.08918 9.99014 7.69418 10.4851 7.39918C10.9851 7.10418 11.5326 6.95668 12.1276 6.95668C12.7326 6.95668 13.2826 7.10418 13.7776 7.39918C14.2726 7.69418 14.6651 8.08918 14.9551 8.58418C15.2501 9.07418 15.3976 9.61918 15.3976 10.2192C15.3976 10.8342 15.2476 11.4017 14.9476 11.9217C14.6526 12.4367 14.2451 12.8367 13.7251 13.1217C13.5051 13.2367 13.3301 13.3992 13.2001 13.6092C13.0751 13.8192 13.0126 14.0517 13.0126 14.3067H11.4526ZM12.2701 17.8542C12.0401 17.8542 11.8451 17.7742 11.6851 17.6142C11.5251 17.4492 11.4451 17.2517 11.4451 17.0217C11.4451 16.7967 11.5251 16.6067 11.6851 16.4517C11.8451 16.2917 12.0401 16.2117 12.2701 16.2117C12.4951 16.2117 12.6876 16.2917 12.8476 16.4517C13.0076 16.6067 13.0876 16.7967 13.0876 17.0217C13.0876 17.2517 13.0076 17.4492 12.8476 17.6142C12.6876 17.7742 12.4951 17.8542 12.2701 17.8542Z" fill="#F0F4F3"/>
</g>
<defs>
<clipPath id="clip0_120_2593">
<rect width="24" height="24" fill="white"/>
</clipPath>
</defs>
</svg>
