<svg width="24" height="24" viewBox="0 0 24 24" fill="none" xmlns="http://www.w3.org/2000/svg">
<g clip-path="url(#clip0_120_2586)">
<path d="M12.125 0.59375C12.6683 0.467075 13.2602 0.48594 14.0488 0.626953C14.8389 0.768244 15.8153 1.0294 17.127 1.38086C18.4385 1.7323 19.415 1.99396 20.1699 2.2666C20.9234 2.53879 21.4463 2.81879 21.8535 3.2002C22.5061 3.81153 22.963 4.60276 23.166 5.47363C23.2927 6.01697 23.2738 6.6089 23.1328 7.39746C22.9915 8.18756 22.7294 9.16384 22.3779 10.4756L21.7764 12.7207C21.4249 14.0324 21.1633 15.0088 20.8906 15.7637C20.6185 16.517 20.3393 17.0391 19.958 17.4463C19.4231 18.0174 18.7501 18.4385 18.0068 18.6709L17.6846 18.7588C17.5772 18.7839 17.4675 18.8036 17.3555 18.8174C16.8432 18.8806 16.2682 18.8291 15.5215 18.6807C14.7741 18.5321 13.8638 18.2884 12.6816 17.9717C11.3698 17.6201 10.3936 17.3577 9.63867 17.085C8.88532 16.8128 8.36324 16.5336 7.95605 16.1523C7.3034 15.5411 6.84667 14.7498 6.64355 13.8789C6.51687 13.3356 6.53578 12.7436 6.67676 11.9551C6.81805 11.1649 7.07913 10.1879 7.43066 8.87598L8.03223 6.63184C8.13315 6.25519 8.22676 5.90568 8.31543 5.58105C8.84601 3.63856 9.19538 2.60684 9.85156 1.90625C10.4629 1.25353 11.254 0.796819 12.125 0.59375ZM11.3379 12.0811C10.8066 11.9388 10.2606 12.2539 10.1182 12.7852C9.97564 13.3166 10.2909 13.8634 10.8223 14.0059L14.1885 14.9072C14.72 15.0496 15.2668 14.7346 15.4092 14.2031C15.5516 13.6717 15.2356 13.1258 14.7041 12.9834L11.3379 12.0811ZM12.2402 8.71484C11.7089 8.57274 11.1629 8.88859 11.0205 9.41992C10.8784 9.95118 11.1934 10.4972 11.7246 10.6396L17.3359 12.1426C17.8673 12.2848 18.4133 11.9698 18.5557 11.4385C18.698 10.9072 18.3828 10.3613 17.8516 10.2188L12.2402 8.71484Z" fill="#2E7D32" stroke="#875A86" stroke-width="0.25"/>
<path d="M17.3706 18.9402C17.1284 19.6817 16.7025 20.3526 16.13 20.8888C15.2805 21.6844 13.9706 22.0354 11.351 22.7374C8.73123 23.4393 7.42138 23.7903 6.28783 23.5259C5.39281 23.3173 4.57975 22.8479 3.9515 22.1771C3.15584 21.3276 2.80487 20.0178 2.10292 17.398L1.50158 15.1539C0.799635 12.5342 0.448667 11.2243 0.712974 10.0908C0.921659 9.19572 1.39107 8.38267 2.06185 7.75442C2.91137 6.95875 4.22122 6.60778 6.84092 5.90583C7.33653 5.77304 7.78528 5.6528 8.1948 5.54691C8.19476 5.54704 8.19483 5.54679 8.1948 5.54691C8.10602 5.87194 8.01228 6.22211 7.91136 6.59878L7.31002 8.84299C6.60807 11.4626 6.2571 12.7726 6.52141 13.9061C6.73009 14.8011 7.19951 15.6142 7.87029 16.2424C8.71981 17.038 10.0297 17.3891 12.6494 18.091C15.0105 18.7236 16.3077 19.0712 17.3706 18.9402Z" fill="#2E7D32"/>
</g>
<defs>
<clipPath id="clip0_120_2586">
<rect width="24" height="24" fill="white"/>
</clipPath>
</defs>
</svg>
