<svg width="24" height="21" viewBox="0 0 24 21" fill="none" xmlns="http://www.w3.org/2000/svg">
<path fill-rule="evenodd" clip-rule="evenodd" d="M20.5316 2.93308H18.3317L17.5985 1.46654C17.1666 0.613747 16.9415 0 16.1319 0H7.3327C6.52317 0 6.25479 0.699539 5.86616 1.46654L5.13289 2.93308H2.93308C1.31329 2.93308 0 4.24637 0 5.86616V17.5985C0 19.2183 1.31329 20.5316 2.93308 20.5316H20.5316C22.1513 20.5316 23.4646 19.2183 23.4646 17.5985V5.86616C23.4646 4.24637 22.1513 2.93308 20.5316 2.93308ZM11.7323 17.5985C8.49273 17.5985 5.86616 14.9719 5.86616 11.7323C5.86616 8.49273 8.49273 5.86616 11.7323 5.86616C14.9719 5.86616 17.5985 8.49273 17.5985 11.7323C17.5985 14.9719 14.9719 17.5985 11.7323 17.5985ZM11.7323 7.3327C9.30299 7.3327 7.3327 9.30299 7.3327 11.7323C7.3327 14.1616 9.30299 16.1319 11.7323 16.1319C14.1616 16.1319 16.1319 14.1616 16.1319 11.7323C16.1319 9.30299 14.1616 7.3327 11.7323 7.3327Z" fill="#84A27A"/>
</svg>
