<svg width="22" height="23" viewBox="0 0 22 23" fill="none" xmlns="http://www.w3.org/2000/svg">
<path d="M5.08075 0C5.08075 0 2.57696 1.87696 2.67181 3.21192C2.75231 4.34462 4.89882 4.49994 5.08075 5.62085C5.17661 6.21165 4.27777 7.22681 4.27777 7.22681C4.27777 7.22681 6.68671 5.95344 6.68671 4.81787C6.68671 3.68231 4.53874 3.51414 4.27777 2.40894C4.0833 1.58518 5.08075 0 5.08075 0ZM9.09564 0C9.09564 0 6.59186 1.87696 6.68671 3.21192C6.76721 4.34462 8.91372 4.49994 9.09564 5.62085C9.1915 6.21165 8.29267 7.22681 8.29267 7.22681C8.29267 7.22681 10.7016 5.95344 10.7016 4.81787C10.7016 3.68231 8.55363 3.51414 8.29267 2.40894C8.0982 1.58518 9.09564 0 9.09564 0ZM13.1105 0C13.1105 0 10.6068 1.87696 10.7016 3.21192C10.7821 4.34462 12.9286 4.49994 13.1105 5.62085C13.2064 6.21165 12.3076 7.22681 12.3076 7.22681C12.3076 7.22681 14.7165 5.95344 14.7165 4.81787C14.7165 3.68231 12.5685 3.51414 12.3076 2.40894C12.1131 1.58518 13.1105 0 13.1105 0ZM1.53223 8.48147C1.604 11.6908 2.48291 17.4865 5.28149 20.4258H12.9098C15.7084 17.4865 16.5873 11.6908 16.6591 8.48147H1.53223ZM17.5716 8.5038C17.5623 8.9631 17.5389 9.46998 17.4978 10.0122C18.8976 10.1959 19.986 11.3994 19.986 12.8477C19.986 14.4222 18.7 15.7083 17.1254 15.7083C16.9053 15.7083 16.691 15.6823 16.4849 15.6348C16.3387 16.1175 16.1749 16.5966 15.991 17.0656C16.3527 17.1622 16.7328 17.2139 17.1254 17.2139C19.5422 17.2139 21.4916 15.2644 21.4916 12.8477C21.4916 10.5816 19.7777 8.72638 17.5716 8.5038ZM5.01586e-05 21.3291C0.0756807 21.5897 0.193468 21.8912 0.349095 22.1507C0.481436 22.3712 0.634655 22.5626 0.772064 22.6817C0.909374 22.8006 1.01567 22.8347 1.06585 22.8347H17.1254C17.1756 22.8347 17.2819 22.8007 17.4193 22.6817C17.5567 22.5626 17.7099 22.3712 17.8422 22.1507C17.9978 21.8912 18.1157 21.5897 18.1913 21.3291H5.01586e-05Z" fill="#2E7D32"/>
</svg>
