<svg width="20" height="19" viewBox="0 0 20 19" fill="none" xmlns="http://www.w3.org/2000/svg">
<path d="M18.9675 15.5863L15.492 9.1591C15.8466 8.35437 16.045 7.4653 16.045 6.52932C16.045 2.92317 13.1218 0 9.51563 0C5.90889 0 2.98572 2.92376 2.98572 6.52932C2.98572 7.48787 3.19418 8.39713 3.56418 9.21612L0.0732428 15.5833C-0.0395979 15.7882 -0.0205931 16.0406 0.120161 16.2271C0.260915 16.4136 0.499068 16.5009 0.727125 16.4474L3.7079 15.7638L4.72822 18.6057C4.8078 18.8266 5.00973 18.9798 5.24313 18.997C5.25798 18.9982 5.27282 18.9988 5.28708 18.9988C5.50444 18.9988 5.70637 18.8794 5.8103 18.6858L8.84869 13.026C9.06783 13.0485 9.29055 13.0598 9.51563 13.0598C9.72172 13.0598 9.92542 13.0491 10.1268 13.0301L13.2311 18.6912C13.3362 18.883 13.5363 19 13.7519 19C13.7674 19 13.7828 18.9994 13.7982 18.9982C14.031 18.9792 14.2318 18.8266 14.3108 18.6068L15.3311 15.765L18.3125 16.4486C18.5411 16.5038 18.7769 16.4148 18.9182 16.2295C19.0596 16.0442 19.0786 15.7929 18.9681 15.5875L18.9675 15.5863ZM5.39576 16.9481L4.64864 14.8665C4.54649 14.5832 4.25013 14.4187 3.95674 14.4882L1.75219 14.9942L4.26498 10.4104C5.09228 11.5288 6.2682 12.3721 7.63238 12.7825L5.39576 16.9481ZM4.17886 6.52932C4.17886 3.58655 6.57346 1.19255 9.51563 1.19255C12.4578 1.19255 14.8518 3.58655 14.8518 6.52932C14.8518 9.47209 12.4578 11.8661 9.51504 11.8661C6.57227 11.8661 4.17886 9.47149 4.17886 6.52932ZM15.0828 14.4882C14.7883 14.4187 14.4931 14.5832 14.3909 14.8659L13.6385 16.9623L11.3526 12.7949C12.7524 12.3846 13.9574 11.5193 14.7954 10.3689L17.2981 14.9959L15.0828 14.4882Z" fill="#236B27"/>
<circle cx="9.5" cy="6.5" r="5.5" fill="#236B27"/>
<circle cx="9.5" cy="6.5" r="3.5" fill="#E8F5E9"/>
</svg>
