<svg width="17" height="22" viewBox="0 0 17 22" fill="none" xmlns="http://www.w3.org/2000/svg">
<path fill-rule="evenodd" clip-rule="evenodd" d="M15.9791 14.0159C15.8008 18.2729 12.2947 21.6698 7.99383 21.6698C3.57894 21.6698 5.61145e-06 17.9705 5.61145e-06 13.676C5.61145e-06 13.1019 -0.0102844 11.9547 0.850413 10.0192C1.3655 8.86086 1.68857 8.13317 1.8709 7.46798C1.97108 7.10239 2.16591 6.52156 2.72131 7.46798C3.0488 8.02602 3.06147 8.82863 3.06147 8.82863C3.06147 8.82863 4.27993 7.89361 5.10245 6.10733C6.30824 3.48867 5.34617 1.92333 5.01741 0.834807C4.90362 0.458247 4.83219 -0.218507 5.61269 0.0694404C6.40799 0.362916 8.51054 1.83472 9.60961 3.38603C11.1782 5.60006 11.7356 7.7231 11.7356 7.7231C11.7356 7.7231 12.2379 7.09976 12.4159 6.44749C12.6171 5.71096 12.62 4.98148 13.2663 5.76725C13.8809 6.51451 14.7936 7.91878 15.3073 9.25384C16.2401 11.6783 15.9791 14.0159 15.9791 14.0159Z" fill="url(#paint0_linear_103_1866)"/>
<path fill-rule="evenodd" clip-rule="evenodd" d="M7.99396 21.6694C4.94108 21.6694 2.46631 19.1946 2.46631 16.1417C2.46631 14.2997 3.20863 13.1813 4.75356 11.6647C5.74276 10.6936 6.6686 9.50089 7.06208 8.68875C7.13955 8.52888 7.31584 7.69573 7.99557 8.67124C8.35215 9.18284 8.91112 10.0927 9.26957 10.8692C9.88747 12.208 10.0349 13.5055 10.0349 13.5055C10.0349 13.5055 10.6405 13.1486 11.0554 12.2298C11.1892 11.9337 11.4596 10.8127 12.2156 11.9336C12.7704 12.7561 13.5324 14.2349 13.5216 16.1417C13.5216 19.1946 11.0467 21.6694 7.99396 21.6694Z" fill="#FC9502"/>
<path fill-rule="evenodd" clip-rule="evenodd" d="M8.07922 15.6313C8.86585 15.6313 8.86585 17.088 9.86508 19.033C10.5304 20.3281 9.5352 21.6692 8.07922 21.6692C6.62324 21.6692 5.86816 20.489 5.86816 19.033C5.86816 17.5771 7.2926 15.6313 8.07922 15.6313Z" fill="#FCE202"/>
<defs>
<linearGradient id="paint0_linear_103_1866" x1="8.00582" y1="21.6858" x2="8.00582" y2="0.0163749" gradientUnits="userSpaceOnUse">
<stop stop-color="#FF4C0D"/>
<stop offset="1" stop-color="#FC9502"/>
</linearGradient>
</defs>
</svg>
