<svg width="30" height="30" viewBox="0 0 30 30" fill="none" xmlns="http://www.w3.org/2000/svg">
<path d="M5.15283 15.2008C5.15283 12.9474 5.15283 11.8206 5.6641 10.8866C6.17537 9.95256 7.10942 9.37286 8.97751 8.21347L10.947 6.99118C12.9217 5.76561 13.9091 5.15283 15 5.15283C16.091 5.15283 17.0784 5.76561 19.0531 6.99118L21.0226 8.21346C22.8907 9.37286 23.8247 9.95256 24.336 10.8866C24.8472 11.8206 24.8472 12.9474 24.8472 15.2008V16.6987C24.8472 20.5399 24.8472 22.4606 23.6935 23.6538C22.5399 24.8472 20.683 24.8472 16.9695 24.8472H13.0306C9.31698 24.8472 7.46018 24.8472 6.3065 23.6538C5.15283 22.4606 5.15283 20.5399 5.15283 16.6987V15.2008Z" stroke="white" stroke-width="1.47708"/>
<path d="M17.9542 20.9084H12.0459" stroke="white" stroke-width="1.47708" stroke-linecap="round"/>
</svg>
