<svg width="18" height="18" viewBox="0 0 18 18" fill="none" xmlns="http://www.w3.org/2000/svg">
<path d="M17.9126 14.7194L14.6304 8.64968C14.9652 7.8897 15.1525 7.05009 15.1525 6.16616C15.1525 2.76058 12.392 0 8.98638 0C5.58024 0 2.81966 2.76114 2.81966 6.16616C2.81966 7.0714 3.01652 7.93008 3.36594 8.70352L0.0691691 14.7166C-0.0373955 14.9101 -0.0194478 15.1484 0.113477 15.3245C0.246403 15.5007 0.47131 15.5831 0.686683 15.5326L3.50167 14.8871L4.46524 17.5708C4.54039 17.7795 4.73109 17.9242 4.95151 17.9404C4.96553 17.9415 4.97955 17.9421 4.99301 17.9421C5.19829 17.9421 5.38898 17.8294 5.48713 17.6465L8.35653 12.3015C8.56348 12.3228 8.77381 12.3334 8.98638 12.3334C9.181 12.3334 9.37337 12.3233 9.56351 12.3054L12.4952 17.6516C12.5944 17.8327 12.7834 17.9432 12.987 17.9432C13.0016 17.9432 13.0162 17.9427 13.0308 17.9415C13.2506 17.9236 13.4402 17.7795 13.5148 17.5719L14.4784 14.8882L17.2939 15.5337C17.5099 15.5859 17.7325 15.5018 17.866 15.3268C17.9995 15.1518 18.0174 14.9145 17.9131 14.7205L17.9126 14.7194ZM5.09565 16.0054L4.39008 14.0396C4.29361 13.7721 4.01374 13.6167 3.73667 13.6823L1.65474 14.1602L4.02776 9.83142C4.80905 10.8875 5.91956 11.684 7.20787 12.0715L5.09565 16.0054ZM3.94644 6.16616C3.94644 3.38707 6.20785 1.12622 8.98638 1.12622C11.7649 1.12622 14.0258 3.38707 14.0258 6.16616C14.0258 8.94525 11.7649 11.2061 8.98582 11.2061C6.20673 11.2061 3.94644 8.94469 3.94644 6.16616ZM14.2439 13.6823C13.9657 13.6167 13.687 13.7721 13.5905 14.039L12.8799 16.0189L10.7211 12.0833C12.0431 11.6957 13.1811 10.8786 13.9725 9.79216L16.336 14.1619L14.2439 13.6823Z" fill="white"/>
</svg>
