<svg width="20" height="25" viewBox="0 0 20 25" fill="none" xmlns="http://www.w3.org/2000/svg">
<path fill-rule="evenodd" clip-rule="evenodd" d="M15.0663 6.47786C15.0663 10.1713 12.8352 13.3411 9.86427 13.3411C6.89102 13.3411 4.66224 10.1713 4.66224 6.4767C4.66224 2.78442 6.58121 0.625 9.86427 0.625C13.1473 0.625 15.0663 2.78326 15.0663 6.47786ZM0.734133 21.5973C1.1792 22.1267 3.09585 23.7451 9.86427 23.7451C16.6327 23.7451 18.5482 22.1267 18.9944 21.5984C19.0358 21.5476 19.0664 21.4889 19.0843 21.4259C19.1021 21.3629 19.107 21.2969 19.0984 21.232C18.9967 20.2124 18.0788 15.6531 9.86427 15.6531C1.64969 15.6531 0.731821 20.2124 0.628937 21.232C0.620565 21.297 0.625578 21.363 0.643668 21.4261C0.661759 21.4891 0.692545 21.5466 0.734133 21.5973Z" stroke="white" stroke-width="1.25"/>
</svg>
