<svg width="24" height="12" viewBox="0 0 24 12" fill="none" xmlns="http://www.w3.org/2000/svg">
<path d="M23.3319 3.63761C22.8778 2.56746 22.1235 1.65935 21.1724 1.01655C20.6992 0.697086 20.1756 0.44297 19.6136 0.269686C19.0554 0.0926377 18.4589 0.000185825 17.8432 0.000185825C17.0539 0.000185825 16.2957 0.154319 15.603 0.435487C15.545 0.458355 15.4913 0.481318 15.4376 0.50837C14.814 0.781636 14.2442 1.16655 13.7555 1.62472C13.5977 1.77472 13.4477 1.93257 13.2973 2.10962C13.0319 2.4137 12.7587 2.76403 12.4929 3.11808C12.4391 3.19097 12.3813 3.26803 12.3275 3.34138C12.1813 3.54134 10.7838 5.58914 10.5376 5.95486C10.4143 6.13939 10.2681 6.34726 10.1102 6.57432C10.0756 6.62433 10.0373 6.67844 9.99895 6.73217C9.73698 7.10547 9.44452 7.49824 9.17501 7.8448C9.04045 8.01772 8.90551 8.17933 8.7901 8.31427C8.67097 8.4526 8.56308 8.56425 8.48602 8.6375C8.15525 8.94912 7.7662 9.20323 7.33922 9.37651C6.91187 9.5498 6.44612 9.64602 5.95332 9.64602C5.61466 9.64602 5.28761 9.59972 4.97981 9.51517C4.82196 9.47273 4.66783 9.41895 4.51783 9.35355C3.85556 9.07615 3.28983 8.60668 2.8933 8.01767C2.69333 7.72149 2.53543 7.39821 2.4276 7.05164C2.3238 6.70507 2.26222 6.33973 2.26222 5.95481C2.26222 5.44286 2.36633 4.96173 2.55087 4.5189C2.83203 3.857 3.3015 3.29509 3.89051 2.89474C4.1867 2.6944 4.50993 2.54064 4.8565 2.43276C5.20269 2.32487 5.56841 2.26366 5.95332 2.26366C6.44612 2.26738 6.91187 2.35987 7.33922 2.53279C7.76625 2.70979 8.15525 2.96014 8.48602 3.27175C8.56308 3.34505 8.67097 3.46042 8.7901 3.59536C8.99797 3.83781 9.24418 4.14942 9.49076 4.47684C9.58698 4.60763 9.6832 4.73843 9.77942 4.873C10.1489 4.33437 10.7954 3.38749 11.1341 2.89846C11.0766 2.82139 11.0187 2.74474 10.9612 2.66768C10.807 2.47106 10.6529 2.28276 10.4992 2.10948C10.3451 1.93243 10.1989 1.77458 10.041 1.62458C9.50992 1.12388 8.8826 0.716096 8.19355 0.435301C7.50079 0.154133 6.7423 0 5.95332 0C5.13353 0 4.34831 0.165753 3.63263 0.469836C2.56253 0.920151 1.65777 1.67455 1.01497 2.62514C0.695505 3.09879 0.441761 3.62576 0.264713 4.18395C0.0914755 4.74606 -0.000976562 5.33884 -0.000976562 5.95491C-0.000976562 6.7747 0.164405 7.55992 0.46477 8.27183C0.918803 9.34574 1.6732 10.2505 2.62008 10.8933C3.09744 11.2128 3.62106 11.4665 4.18298 11.6435C4.74113 11.8168 5.33767 11.9093 5.95337 11.9093C6.74235 11.9093 7.50088 11.7551 8.1936 11.4744C8.88264 11.1932 9.5062 10.7853 10.0373 10.2888L10.0411 10.285C10.199 10.1388 10.3452 9.97682 10.4993 9.79978C10.7646 9.49569 11.0379 9.14573 11.3036 8.79164C11.3574 8.71833 11.4153 8.64503 11.469 8.5721C11.6153 8.368 13.5285 5.56204 13.686 5.33503C13.721 5.28501 13.7593 5.23128 13.7976 5.17717C14.0596 4.80765 14.352 4.41116 14.6216 4.06496C14.7561 3.89168 14.8911 3.73001 15.0065 3.59545C15.1256 3.45675 15.2335 3.3451 15.3105 3.27184C15.6413 2.96023 16.0304 2.70988 16.4574 2.53288C16.5615 2.49077 16.6653 2.45623 16.7731 2.42123C17.1118 2.32129 17.4696 2.26752 17.8432 2.26375C18.3551 2.26747 18.8401 2.3675 19.2787 2.55617C19.9406 2.8332 20.5067 3.30266 20.9029 3.89168C21.1032 4.18823 21.2611 4.51151 21.3686 4.85766C21.4765 5.20423 21.5343 5.56994 21.5343 5.95486C21.5343 6.46681 21.4302 6.9517 21.2457 7.39035C20.9645 8.05225 20.4951 8.61835 19.906 9.01451C19.6099 9.21485 19.2866 9.37275 18.9401 9.4765C18.5976 9.58438 18.2282 9.64606 17.8432 9.64606C17.3504 9.64606 16.8847 9.54984 16.4573 9.37656C16.0303 9.20328 15.6413 8.94916 15.3105 8.63755C15.2334 8.56425 15.1256 8.44888 15.0064 8.31432C14.7986 8.07563 14.552 7.75988 14.3058 7.43288C14.2058 7.30204 14.1096 7.1671 14.0133 7.03254C13.9825 7.07874 13.9517 7.12503 13.9171 7.175C13.2819 8.10645 12.8816 8.69542 12.6624 9.01456C12.7199 9.09163 12.7778 9.16493 12.8353 9.242C12.9894 9.4382 13.1435 9.62691 13.2972 9.79978C13.4476 9.97678 13.5976 10.1388 13.7555 10.285C14.2866 10.7853 14.9139 11.1932 15.6029 11.4744C16.2957 11.7551 17.0538 11.9093 17.8432 11.9093C18.6629 11.9093 19.4482 11.7439 20.1601 11.4436C21.234 10.9895 22.1384 10.2351 22.7815 9.28411C23.1006 8.81088 23.3588 8.28726 23.5318 7.7253C23.7051 7.1671 23.7976 6.5706 23.7976 5.95491C23.7976 5.13511 23.6323 4.34989 23.3319 3.63761Z" fill="#236B27"/>
</svg>
