<svg width="19" height="19" viewBox="0 0 19 19" fill="none" xmlns="http://www.w3.org/2000/svg">
<path d="M9.24121 0.126953C12.7172 0.126953 15.5351 2.94497 15.5352 6.4209C15.5352 7.30035 15.3512 8.13629 15.0254 8.89648L18.2793 14.9141L18.2803 14.915L18.3213 15.0068C18.4003 15.2246 18.3661 15.4711 18.2227 15.6592C18.06 15.8723 17.7871 15.9759 17.5205 15.9121V15.9131L14.8145 15.292L13.8896 17.8701C13.8095 18.093 13.6215 18.2565 13.3955 18.3086L13.2959 18.3232C13.2782 18.3246 13.26 18.3252 13.2422 18.3252C12.9924 18.3252 12.7605 18.1899 12.6387 17.9678L9.74609 12.6934C9.57974 12.707 9.41147 12.7158 9.24121 12.7158C9.05343 12.7158 8.86742 12.7058 8.68359 12.6895L5.85449 17.9619C5.734 18.1863 5.49991 18.3242 5.24805 18.3242C5.23113 18.3242 5.2136 18.3236 5.19629 18.3223V18.3213C4.92606 18.301 4.69277 18.1246 4.60059 17.8691L3.6748 15.291L0.969727 15.9111C0.705039 15.9728 0.42952 15.8721 0.266602 15.6562C0.103703 15.4404 0.0811402 15.1479 0.211914 14.9102L3.47949 8.9502C3.13956 8.17646 2.94727 7.32146 2.94727 6.4209C2.94734 2.94555 5.76473 0.126979 9.24121 0.126953ZM14.209 10.2812C13.4398 11.2697 12.3822 12.0207 11.1621 12.4121L13.1094 15.9639L13.7256 14.251L13.7803 14.1348C13.9292 13.881 14.2273 13.7428 14.5264 13.8125L16.3438 14.2285L14.209 10.2812ZM2.15723 14.2266L3.96289 13.8125C4.30403 13.7321 4.64666 13.9242 4.76465 14.251L5.37305 15.9473L7.27734 12.4004C6.08955 12.0105 5.05847 11.2782 4.30078 10.3184L2.15723 14.2266ZM9.24121 1.50879C6.53316 1.50882 4.32918 3.71232 4.3291 6.4209C4.3291 9.12889 6.5318 11.3328 9.24023 11.333C11.9489 11.333 14.1533 9.12957 14.1533 6.4209C14.1532 3.71228 11.9493 1.50879 9.24121 1.50879Z" fill="#236B27" stroke="#236B27" stroke-width="0.255"/>
</svg>
