<svg width="25" height="25" viewBox="0 0 25 25" fill="none" xmlns="http://www.w3.org/2000/svg">
<path d="M5.84844 11.9172H1.19844C1.04428 11.9172 0.896437 11.9785 0.787432 12.0875C0.678426 12.1965 0.617188 12.3443 0.617188 12.4985V21.2172H6.42969V12.4985C6.42969 12.3443 6.36845 12.1965 6.25944 12.0875C6.15044 11.9785 6.00259 11.9172 5.84844 11.9172Z" fill="#236B27"/>
<path d="M14.5672 2.61719H9.91719C9.76303 2.61719 9.61519 2.67843 9.50618 2.78743C9.39718 2.89644 9.33594 3.04428 9.33594 3.19844V21.2172H15.1484V3.19844C15.1484 3.04428 15.0872 2.89644 14.9782 2.78743C14.8692 2.67843 14.7213 2.61719 14.5672 2.61719Z" fill="#236B27"/>
<path d="M23.2859 7.26709H18.6359C18.4818 7.26709 18.3339 7.32833 18.2249 7.43733C18.1159 7.54634 18.0547 7.69418 18.0547 7.84834V21.2171H23.8672V7.84834C23.8672 7.69418 23.8059 7.54634 23.6969 7.43733C23.5879 7.32833 23.4401 7.26709 23.2859 7.26709Z" fill="#236B27"/>
</svg>
