<svg width="14" height="25" viewBox="0 0 14 25" fill="none" xmlns="http://www.w3.org/2000/svg">
<path d="M12.6672 17.2438H2.17473C2.00597 17.2438 1.84805 17.314 1.74135 17.4364C1.63465 17.5588 1.58663 17.7248 1.60965 17.8919L2.64425 23.9705C2.69114 24.2953 2.98361 24.5491 3.31213 24.5491H11.5299C11.8584 24.5491 12.1508 24.2953 12.1978 23.9705L13.2312 17.8995L13.2324 17.8919C13.2554 17.7248 13.2074 17.5588 13.1007 17.4364C12.994 17.314 12.836 17.2438 12.6672 17.2438Z" fill="#236B27"/>
<path d="M13.3727 12.6186H7.6126V9.59897C7.62127 9.59171 7.63001 9.58453 7.63863 9.57615C7.97498 9.24838 8.52842 9.07277 9.16923 8.86932C10.338 8.49839 11.7925 8.03669 12.6966 6.35571C13.1842 5.44884 13.4407 4.2146 13.4186 2.8802C13.401 1.81263 13.2004 0.779717 12.9197 0.309913C12.7968 0.104254 12.6518 0 12.4888 0C12.4021 0 12.2754 0.030887 12.1644 0.177861C11.8911 0.539561 11.3029 0.722556 10.6218 0.934393C9.45507 1.29726 8.00306 1.74889 7.13028 3.37134C6.69056 4.18893 6.4847 5.17113 6.43127 6.11299C6.21791 5.76408 5.93339 5.42477 5.5475 5.10916C4.3472 4.12779 2.53329 3.77957 1.34462 3.77957C0.587524 3.77957 0.145277 3.91046 0.0301928 4.16851C0.00163233 4.23257 -0.0475465 4.40064 0.111943 4.57814C0.370512 4.86603 0.428876 5.39725 0.496587 6.01238C0.613998 7.08031 0.76017 8.40938 2.01735 9.43744C3.19459 10.4 4.90878 10.7431 6.12044 10.7431C6.29088 10.7431 6.47528 10.7363 6.65302 10.7171V12.6187H1.47017C1.12885 12.6187 0.851147 12.8964 0.851147 13.2377V15.6483C0.851147 15.9896 1.12885 16.2673 1.47017 16.2673H13.3727C13.714 16.2673 13.9917 15.9896 13.9917 15.6483V13.2377C13.9917 12.8963 13.714 12.6186 13.3727 12.6186ZM5.7662 8.96535L5.7455 8.94389L5.74033 8.93855L5.73904 8.93715C5.73764 8.9355 5.7467 8.94669 5.74225 8.94148L5.73972 8.93923L5.72966 8.93021C5.7029 8.90618 5.67582 8.88191 5.64847 8.85732C5.59082 8.81083 5.53439 8.76205 5.47225 8.71665C5.22744 8.53221 4.93891 8.36473 4.6306 8.20352C4.32337 8.04102 3.99818 7.88209 3.69745 7.69757C3.54714 7.60567 3.40358 7.50672 3.27273 7.40162C3.14204 7.29664 3.02584 7.18188 2.93109 7.06499C2.83714 6.94726 2.76197 6.83009 2.714 6.71725C2.70072 6.69017 2.69009 6.66262 2.68074 6.63574C2.67091 6.60923 2.66209 6.58355 2.65391 6.55896C2.64079 6.5081 2.629 6.46261 2.62097 6.42069C2.61464 6.37745 2.6099 6.33971 2.60657 6.30726C2.60324 6.27516 2.60525 6.24825 2.60469 6.22611C2.60545 6.18182 2.60585 6.15824 2.60585 6.15824C2.60585 6.15824 2.61841 6.17821 2.64203 6.21564C2.65403 6.23405 2.66674 6.25864 2.68455 6.28423C2.70208 6.30878 2.72218 6.33706 2.74472 6.36867C2.76895 6.39835 2.79571 6.43128 2.82495 6.46707C2.85856 6.49936 2.88724 6.53758 2.92712 6.57156C2.94589 6.58889 2.96522 6.60678 2.98508 6.62523C3.00618 6.64228 3.02784 6.65981 3.05006 6.67782C3.07136 6.69599 3.09639 6.71232 3.11998 6.73013C3.14349 6.74794 3.16828 6.76535 3.19519 6.78159C3.29884 6.84994 3.41622 6.91601 3.54726 6.97927C3.67763 7.04345 3.82055 7.1051 3.97154 7.1694C4.27343 7.29761 4.60978 7.43463 4.94352 7.60924C5.10999 7.69669 5.27546 7.79461 5.43238 7.90456C5.58942 8.01435 5.7374 8.13749 5.86877 8.27067C5.93491 8.33653 5.99557 8.40677 6.05225 8.47697C6.07932 8.51323 6.10612 8.54913 6.13267 8.58459L6.14246 8.59779L6.14495 8.60116C6.14134 8.59675 6.15128 8.6089 6.1506 8.60818L6.1516 8.60974L6.1557 8.61604L6.17182 8.64115C6.18229 8.658 6.19276 8.67469 6.20299 8.69137C6.28578 8.82431 6.3616 8.95203 6.42975 9.07137C6.46308 9.13161 6.49598 9.18866 6.52562 9.24417C6.55474 9.30017 6.5821 9.35372 6.60669 9.40482C6.62317 9.4388 6.63846 9.47085 6.65318 9.50202V9.77852C6.64367 9.77086 6.6344 9.7634 6.62426 9.75505C6.56132 9.70391 6.48695 9.64033 6.40339 9.5662C6.32068 9.49119 6.22742 9.40671 6.12561 9.31441C6.02513 9.22095 5.91839 9.11798 5.808 9.0071C5.79404 8.99335 5.7802 8.97939 5.7662 8.96535ZM8.41547 7.54418L8.43648 7.51743L8.4417 7.51073L8.44298 7.50904C8.44407 7.50776 8.43813 7.51414 8.44122 7.51069L8.44342 7.50748L8.45241 7.4946C8.47624 7.46043 8.50034 7.42589 8.52477 7.39095C8.57006 7.3183 8.61796 7.24626 8.66108 7.16828C8.83745 6.86021 8.98531 6.50385 9.12033 6.12771C9.25696 5.75241 9.38448 5.35878 9.54236 4.98982C9.62098 4.8055 9.70795 4.6278 9.80362 4.46374C9.89905 4.29964 10.0074 4.15058 10.1214 4.02482C10.2366 3.89987 10.3539 3.79566 10.471 3.72233C10.4989 3.70267 10.5277 3.68595 10.556 3.67079C10.5838 3.6551 10.6108 3.6407 10.6367 3.62714C10.6909 3.60339 10.7397 3.58197 10.7849 3.56533C10.8318 3.55037 10.873 3.53813 10.9086 3.52834C10.9438 3.5186 10.9742 3.51555 10.9989 3.51073C11.0484 3.50307 11.0748 3.49894 11.0748 3.49894C11.0748 3.49894 11.0538 3.51543 11.0143 3.54635C10.995 3.562 10.9689 3.57929 10.942 3.60239C10.9162 3.62522 10.8865 3.65137 10.8533 3.68077C10.8224 3.7119 10.7883 3.7464 10.7511 3.78398C10.7342 3.80388 10.7167 3.82466 10.6984 3.84612C10.6798 3.86682 10.6614 3.88876 10.6445 3.91355C10.6271 3.93722 10.609 3.96156 10.5904 3.98668C10.5735 4.01303 10.5563 4.03999 10.5385 4.06774C10.5202 4.0945 10.5049 4.12527 10.4875 4.15467C10.479 4.16951 10.4706 4.18447 10.4619 4.19968C10.4541 4.21552 10.4463 4.23153 10.4383 4.24773C10.3735 4.37553 10.3136 4.51922 10.2595 4.6779C10.2043 4.83595 10.1542 5.00791 10.103 5.1891C10.001 5.55145 9.89672 5.95314 9.75179 6.35635C9.67911 6.55764 9.59511 6.75893 9.49667 6.95255C9.39851 7.14626 9.28451 7.33158 9.15707 7.5001C9.09422 7.58482 9.02562 7.66396 8.95667 7.73897C8.92065 7.77523 8.88503 7.81109 8.84977 7.84655L8.83665 7.85967L8.8334 7.863L8.82875 7.86785L8.82718 7.86926L8.82085 7.87503L8.79562 7.89786C8.77865 7.91278 8.76168 7.92766 8.74491 7.94238C8.67728 8.00091 8.61234 8.05867 8.54788 8.11294C8.48442 8.16722 8.41747 8.21932 8.35509 8.26822C8.29164 8.31668 8.23171 8.36369 8.17338 8.40693C8.11486 8.44953 8.0603 8.48928 8.00747 8.52583C7.90242 8.59919 7.8092 8.66157 7.73222 8.71199C7.57802 8.81308 7.48372 8.86591 7.48372 8.86591C7.48372 8.86591 7.53543 8.772 7.63671 8.61652C7.68705 8.53818 7.75039 8.44616 7.82432 8.34183C7.89929 8.23761 7.98285 8.12197 8.07406 7.99878C8.16712 7.87467 8.26793 7.74017 8.37459 7.59797C8.38807 7.58004 8.40167 7.56219 8.41547 7.54418Z" fill="#236B27"/>
</svg>
